<svg width="28" height="46" viewBox="0 0 28 46" fill="none" xmlns="http://www.w3.org/2000/svg">
<path d="M13.928 35.48C11.336 35.48 8.824 35.112 6.392 34.376C3.992 33.64 2.088 32.664 0.68 31.448L2.84 26.6C4.216 27.688 5.896 28.584 7.88 29.288C9.896 29.96 11.912 30.296 13.928 30.296C16.424 30.296 18.28 29.896 19.496 29.096C20.744 28.296 21.368 27.24 21.368 25.928C21.368 24.968 21.016 24.184 20.312 23.576C19.64 22.936 18.776 22.44 17.72 22.088C16.664 21.736 15.224 21.336 13.4 20.888C10.84 20.28 8.76 19.672 7.16 19.064C5.592 18.456 4.232 17.512 3.08 16.232C1.96 14.92 1.4 13.16 1.4 10.952C1.4 9.096 1.896 7.416 2.888 5.912C3.912 4.376 5.432 3.16 7.448 2.264C9.496 1.368 11.992 0.919998 14.936 0.919998C16.984 0.919998 19 1.176 20.984 1.688C22.968 2.2 24.68 2.936 26.12 3.896L24.152 8.744C22.68 7.88 21.144 7.224 19.544 6.776C17.944 6.328 16.392 6.104 14.888 6.104C12.424 6.104 10.584 6.52 9.368 7.352C8.184 8.184 7.592 9.288 7.592 10.664C7.592 11.624 7.928 12.408 8.6 13.016C9.304 13.624 10.184 14.104 11.24 14.456C12.296 14.808 13.736 15.208 15.56 15.656C18.056 16.232 20.104 16.84 21.704 17.48C23.304 18.088 24.664 19.032 25.784 20.312C26.936 21.592 27.512 23.32 27.512 25.496C27.512 27.352 27 29.032 25.976 30.536C24.984 32.04 23.464 33.24 21.416 34.136C19.368 35.032 16.872 35.48 13.928 35.48ZM13.16 45.944C11.432 45.944 9.96 45.608 8.744 44.936L9.848 42.104C10.84 42.616 11.928 42.872 13.112 42.872C14.808 42.872 15.656 42.296 15.656 41.144C15.656 40.664 15.448 40.28 15.032 39.992C14.616 39.704 13.976 39.56 13.112 39.56H11.624L12.92 34.664H16.184L15.512 37.352C16.888 37.512 17.928 37.944 18.632 38.648C19.336 39.384 19.688 40.296 19.688 41.384C19.688 42.76 19.096 43.864 17.912 44.696C16.728 45.528 15.144 45.944 13.16 45.944Z" fill="white"/>
</svg>
