<svg width="68" height="68" viewBox="0 0 68 68" fill="none" xmlns="http://www.w3.org/2000/svg">
<g clip-path="url(#clip0_49_953)">
<path d="M66.6677 32.6938C66.6674 32.6938 66.6673 32.6938 66.667 32.6938C65.9339 32.6938 65.3394 33.2879 65.339 34.0212C65.3347 42.386 62.075 50.2502 56.1599 56.1651C50.2407 62.0843 42.3708 65.3442 33.9998 65.3442C25.6287 65.3442 17.7591 62.0842 11.8397 56.165C5.92055 50.2459 2.66066 42.3757 2.66066 34.0048C2.66066 25.6338 5.92041 17.7638 11.8397 11.8447C21.3387 2.3455 35.8116 -0.0497722 47.8534 5.88403C48.5109 6.20809 49.3073 5.93755 49.6315 5.27986C49.9557 4.62204 49.6852 3.82596 49.0274 3.50177C35.9647 -2.93499 20.2656 -0.336781 9.9619 9.96668C3.54108 16.3875 0.00494385 24.9243 0.00494385 34.0048C0.00494385 43.0852 3.54108 51.6221 9.96176 58.0431C16.3827 64.4639 24.9196 67.9999 34 67.9999C43.0804 67.9999 51.6173 64.4638 58.0382 58.0431C64.4542 51.6269 67.9903 43.0961 67.995 34.0225C67.9953 33.289 67.4012 32.6942 66.6677 32.6938Z" fill="white"/>
<path d="M53.5914 6.21677L53.5568 6.19246C52.9562 5.77185 52.128 5.91794 51.7074 6.51892C51.287 7.11963 51.4332 7.94758 52.0341 8.3682L52.065 8.39012C52.2973 8.55321 52.5635 8.63157 52.8271 8.63157C53.2451 8.63157 53.6564 8.43474 53.915 8.06685C54.3365 7.46654 54.1917 6.63845 53.5914 6.21677Z" fill="white"/>
<path d="M60.004 32.6674C59.2708 32.6674 58.676 33.2618 58.676 33.9954L58.6759 34.0766C58.6726 34.8099 59.2644 35.4071 59.9979 35.4103C60.0001 35.4103 60.0019 35.4105 60.004 35.4105C60.7347 35.4105 61.3287 34.8199 61.3319 34.0883L61.332 33.9952C61.332 33.2618 60.7374 32.6674 60.004 32.6674Z" fill="white"/>
<path d="M59.7192 38.0834C59.0019 37.9319 58.2975 38.3916 58.1463 39.1094C55.7578 50.4579 45.5929 58.695 33.9767 58.695C20.3573 58.695 9.27719 47.6148 9.27719 33.9954C9.27719 25.1751 13.9248 17.1624 21.3594 12.7538C21.2731 13.3112 21.5509 13.8839 22.0835 14.147C22.2728 14.2405 22.4734 14.2849 22.6708 14.2849C23.1601 14.2849 23.6308 14.0132 23.8624 13.545L25.3334 10.5681C25.6584 9.91067 25.3888 9.11433 24.7314 8.78933L21.7544 7.31817C21.0967 6.99318 20.3006 7.26292 19.9755 7.92034C19.6505 8.57776 19.9201 9.37411 20.5775 9.6991L20.9983 9.90695C12.1854 14.6482 6.62134 23.8385 6.62134 33.9952C6.62134 49.0789 18.8928 61.3505 33.9767 61.3505C40.29 61.3505 46.4497 59.1485 51.3211 55.1502C56.1256 51.2067 59.4725 45.7042 60.7454 39.6562C60.8962 38.9387 60.437 38.2344 59.7192 38.0834Z" fill="white"/>
<path d="M33.9999 29.7556C32.1206 29.7556 30.5232 30.9825 29.9641 32.6771H18.9942C18.2609 32.6771 17.6662 33.2716 17.6662 34.0051C17.6662 34.7383 18.2608 35.3331 18.9942 35.3331H29.9641C30.3853 36.6095 31.3954 37.6197 32.6719 38.0409V52.5392C32.6719 53.2724 33.2665 53.8672 33.9997 53.8672C34.733 53.8672 35.3277 53.2726 35.3277 52.5392V38.0407C37.0223 37.4817 38.2492 35.8842 38.2492 34.0049C38.2492 31.6619 36.343 29.7556 33.9999 29.7556ZM33.9999 35.5986C33.1212 35.5986 32.4064 34.8838 32.4064 34.0051C32.4064 33.1264 33.1212 32.4116 33.9999 32.4116C34.8786 32.4116 35.5934 33.1264 35.5934 34.0051C35.5934 34.8838 34.8786 35.5986 33.9999 35.5986Z" fill="white"/>
<path d="M40.1095 24.8177H37.5214C39.3667 22.9652 41.4375 20.2861 41.4375 17.5905C41.4375 14.9622 39.6715 13.1962 37.0432 13.1962C34.6201 13.1962 32.6488 15.1675 32.6488 17.5905C32.6488 18.3239 33.2434 18.9185 33.9768 18.9185C34.7101 18.9185 35.3048 18.3241 35.3048 17.5905C35.3048 16.6319 36.0847 15.852 37.0433 15.852C38.7818 15.852 38.7818 17.1606 38.7818 17.5905C38.7817 20.3484 34.7448 23.9291 33.1901 25.0757C32.728 25.4157 32.5362 26.0142 32.7151 26.5595C32.8941 27.1047 33.403 27.4735 33.9769 27.4735H40.1098C40.8431 27.4735 41.4378 26.879 41.4378 26.1455C41.4375 25.4121 40.8428 24.8177 40.1095 24.8177Z" fill="white"/>
<path d="M53.8998 19.0118H53.6934V14.5239C53.6934 13.7905 53.0988 13.1959 52.3654 13.1959C51.632 13.1959 51.0374 13.7904 51.0374 14.5239V19.0118H47.4579V14.5239C47.4579 13.7905 46.8633 13.1959 46.1299 13.1959C45.3966 13.1959 44.8019 13.7904 44.8019 14.5239V20.3398C44.8019 21.0732 45.3965 21.6678 46.1299 21.6678H51.0374V26.1685C51.0374 26.9019 51.632 27.4965 52.3654 27.4965C53.0988 27.4965 53.6934 26.902 53.6934 26.1685V21.6678H53.8998C54.6331 21.6678 55.2278 21.0733 55.2278 20.3398C55.2278 19.6063 54.6331 19.0118 53.8998 19.0118Z" fill="white"/>
<path d="M63.2689 19.0454C62.7187 19.0454 62.1932 19.1526 61.7109 19.3453V14.5239C61.7109 13.7905 61.1163 13.1959 60.3829 13.1959C59.6495 13.1959 59.0549 13.7904 59.0549 14.5239V26.1454C59.0549 26.8788 59.6495 27.4734 60.3829 27.4734C61.1163 27.4734 61.7109 26.8789 61.7109 26.1454V24.522V23.2593C61.7109 22.4001 62.4099 21.7012 63.2689 21.7012C64.1282 21.7012 64.8271 22.4002 64.8271 23.2593V26.1454C64.8271 26.8788 65.4217 27.4734 66.1551 27.4734C66.8885 27.4734 67.4831 26.8789 67.4831 26.1454V23.2593C67.4829 20.9357 65.5925 19.0454 63.2689 19.0454Z" fill="white"/>
</g>
<defs>
<clipPath id="clip0_49_953">
<rect width="68" height="68" fill="white"/>
</clipPath>
</defs>
</svg>
