<svg width="75" height="75" viewBox="0 0 75 75" fill="none" xmlns="http://www.w3.org/2000/svg">
<g clip-path="url(#clip0_49_893)">
<path d="M56.4523 15.0615C57.0592 15.0615 57.5509 14.5697 57.5509 13.9628V12.486C57.5509 11.8791 57.0592 11.3873 56.4523 11.3873C55.8454 11.3873 55.3536 11.8791 55.3536 12.486V13.9628C55.3536 14.5696 55.8455 15.0615 56.4523 15.0615Z" fill="#AEAEAE"/>
<path d="M68.4053 24.817C67.7984 24.817 67.3066 25.3088 67.3066 25.9156C67.3066 26.5225 67.7984 27.0143 68.4053 27.0143H69.882C70.4889 27.0143 70.9806 26.5225 70.9806 25.9156C70.9806 25.3088 70.4889 24.817 69.882 24.817H68.4053Z" fill="#AEAEAE"/>
<path d="M43.0226 24.817C42.4157 24.817 41.924 25.3088 41.924 25.9156C41.924 26.5225 42.4157 27.0143 43.0226 27.0143H44.4994C45.1063 27.0143 45.5981 26.5225 45.5981 25.9156C45.5981 25.3088 45.1063 24.817 44.4994 24.817H43.0226Z" fill="#AEAEAE"/>
<path d="M61.2707 59.9102C59.3196 59.9102 57.7321 61.4976 57.7321 63.4486C57.7321 65.3997 59.3196 66.9871 61.2707 66.9871C63.2218 66.9871 64.8092 65.3997 64.8092 63.4486C64.8092 61.4976 63.2218 59.9102 61.2707 59.9102ZM61.2707 64.7898C60.531 64.7898 59.9294 64.1882 59.9294 63.4486C59.9294 62.709 60.531 62.1074 61.2707 62.1074C62.0103 62.1074 62.6119 62.709 62.6119 63.4486C62.6119 64.1882 62.0103 64.7898 61.2707 64.7898Z" fill="#AEAEAE"/>
<path d="M21.1559 63.4486C21.1559 65.3997 22.7433 66.9871 24.6945 66.9871C26.6457 66.9871 28.233 65.3997 28.233 63.4486C28.233 61.4976 26.6457 59.9102 24.6945 59.9102C22.7433 59.9102 21.1559 61.4975 21.1559 63.4486ZM26.0357 63.4486C26.0357 64.1882 25.4341 64.7898 24.6945 64.7898C23.9549 64.7898 23.3531 64.1882 23.3531 63.4486C23.3531 62.709 23.9549 62.1074 24.6945 62.1074C25.4341 62.1074 26.0357 62.709 26.0357 63.4486Z" fill="#AEAEAE"/>
<path d="M32.1535 46.5865C33.3937 45.3793 33.5367 43.2795 32.1278 41.9084L27.5613 37.4633C25.9139 35.8605 23.2695 35.8959 21.6662 37.543L20.811 38.4216C20.3878 38.8565 20.3972 39.552 20.832 39.9751L25.2338 44.2597L20.832 48.5443C20.6232 48.7474 20.5037 49.0253 20.4997 49.3165C20.4958 49.6079 20.6078 49.8888 20.811 50.0977L21.6662 50.9763C23.2747 52.6288 25.9135 52.6602 27.5613 51.0559L32.1535 46.5865ZM23.2408 49.444L23.1518 49.3527L27.5752 45.0471C27.7876 44.8404 27.9076 44.5564 27.9076 44.2599C27.9076 43.9634 27.7878 43.6794 27.5752 43.4727L23.1518 39.1669L23.2408 39.0757C23.9992 38.2965 25.2498 38.2797 26.0288 39.0379L30.5953 43.4829C31.0827 43.9573 31.0175 44.6258 30.6209 45.0119L26.0288 49.4816C25.2534 50.2362 24.0054 50.2296 23.2408 49.444Z" fill="#AEAEAE"/>
<path d="M55.3536 25.9157C55.3536 26.5226 55.8454 27.0143 56.4523 27.0143H60.1885C60.7954 27.0143 61.2871 26.5226 61.2871 25.9157C61.2871 25.3088 60.7954 24.817 60.1885 24.817H57.5509V17.9753C57.5509 17.3685 57.0592 16.8767 56.4523 16.8767C55.8454 16.8767 55.3536 17.3685 55.3536 17.9753V25.9157Z" fill="#AEAEAE"/>
<path d="M18.7677 16.5262H37.6848C38.2917 16.5262 38.7835 16.0345 38.7835 15.4276C38.7835 14.8207 38.2917 14.329 37.6848 14.329H18.7677C18.161 14.329 17.6691 14.8207 17.6691 15.4276C17.6691 16.0345 18.161 16.5262 18.7677 16.5262Z" fill="#AEAEAE"/>
<path d="M14.1822 22.2021H33.8187C34.4254 22.2021 34.9173 21.7104 34.9173 21.1035C34.9173 20.4966 34.4254 20.0049 33.8187 20.0049H14.1822C13.5755 20.0049 13.0836 20.4966 13.0836 21.1035C13.0836 21.7104 13.5755 22.2021 14.1822 22.2021Z" fill="#AEAEAE"/>
<path d="M25.4162 25.0664C24.8095 25.0664 24.3176 25.5582 24.3176 26.165C24.3176 26.7719 24.8095 27.2637 25.4162 27.2637H35.1874C35.7942 27.2637 36.2861 26.7719 36.2861 26.165C36.2861 25.5582 35.7942 25.0664 35.1874 25.0664H25.4162Z" fill="#AEAEAE"/>
<path d="M16.1536 25.0664C15.5468 25.0664 15.0549 25.5582 15.0549 26.165C15.0549 26.7719 15.5468 27.2637 16.1536 27.2637H21.0303C21.6371 27.2637 22.129 26.7719 22.129 26.165C22.129 25.5582 21.6371 25.0664 21.0303 25.0664H16.1536Z" fill="#AEAEAE"/>
<path d="M1.09863 42.3936H5.1167C5.72344 42.3936 6.21533 41.9018 6.21533 41.2949C6.21533 40.688 5.72344 40.1963 5.1167 40.1963H1.09863C0.491895 40.1963 0 40.688 0 41.2949C0 41.9018 0.491895 42.3936 1.09863 42.3936Z" fill="#AEAEAE"/>
<path d="M4.02832 52.0707H1.09863C0.491895 52.0707 0 52.5624 0 53.1693C0 53.7762 0.491895 54.2679 1.09863 54.2679H4.02832C4.63506 54.2679 5.12695 53.7762 5.12695 53.1693C5.12695 52.5624 4.63506 52.0707 4.02832 52.0707Z" fill="#AEAEAE"/>
<path d="M16.9531 42.7673H13.0349C12.4282 42.7673 11.9363 43.2591 11.9363 43.866C11.9363 44.4728 12.4282 44.9646 13.0349 44.9646H16.9531C17.5598 44.9646 18.0517 44.4728 18.0517 43.866C18.0517 43.2591 17.5598 42.7673 16.9531 42.7673Z" fill="#AEAEAE"/>
<path d="M66.7982 41.3091C71.8885 37.8798 75 32.1007 75 25.9155C75 22.9759 74.3313 20.1629 73.0122 17.5554C72.7384 17.014 72.0773 16.797 71.5361 17.0708C70.9947 17.3446 70.7776 18.0057 71.0515 18.5469C72.2134 20.8444 72.8027 23.3236 72.8027 25.9155C72.8027 31.4781 69.9472 36.6679 65.2972 39.6665L58.9009 32.6673C58.158 31.854 57.0999 31.3877 55.9985 31.3877H41.0416C40.4181 29.6346 40.1019 27.7973 40.1019 25.9155C40.1019 16.8999 47.4366 9.56523 56.4523 9.56523C61.129 9.56523 65.5916 11.5756 68.6959 15.0808C69.0978 15.5349 69.7922 15.5774 70.2467 15.1749C70.701 14.7726 70.7432 14.0783 70.3408 13.624C68.7268 11.8015 66.7882 10.3366 64.6516 9.28296V5.56211C64.6516 4.21006 63.5517 3.11011 62.1996 3.11011H50.7051C49.3531 3.11011 48.2531 4.21006 48.2531 5.56211V9.28193C42.1273 12.3139 37.9046 18.6303 37.9046 25.9155C37.9046 27.7882 38.1817 29.6222 38.7274 31.3877H10.7121C9.31069 31.3877 8.15947 32.4711 8.04712 33.8443H4.02832C3.42158 33.8443 2.92969 34.336 2.92969 34.9429C2.92969 35.5498 3.42158 36.0416 4.02832 36.0416H8.03599V46.6605H1.09863C0.491895 46.6605 0 47.1522 0 47.7591C0 48.366 0.491895 48.8578 1.09863 48.8578H8.03599V52.0712C7.43408 52.0768 6.94761 52.566 6.94761 53.1692C6.94761 53.7725 7.43394 54.2617 8.03599 54.2673V62.0386C8.03599 63.192 8.97437 64.1302 10.1276 64.1302H13.0835V64.895H9.65581C9.04907 64.895 8.55718 65.3868 8.55718 65.9937C8.55718 66.6005 9.04907 67.0923 9.65581 67.0923H14.1822C14.7889 67.0923 15.2808 66.6005 15.2808 65.9937V64.1302H16.2832C16.6318 68.4668 20.2698 71.8895 24.6945 71.8895C26.1546 71.8895 27.596 71.5085 28.8627 70.7878C29.39 70.4876 29.5742 69.8169 29.2742 69.2896C28.9742 68.7621 28.3036 68.5782 27.7759 68.8779C26.8399 69.4107 25.7742 69.6922 24.6945 69.6922C21.2517 69.6922 18.4506 66.8913 18.4506 63.4483C18.4506 60.0054 21.2517 57.2044 24.6945 57.2044C28.1373 57.2044 30.9384 60.0054 30.9384 63.4483C30.9384 64.387 30.7349 65.2898 30.3335 66.1316C30.0724 66.6793 30.3048 67.335 30.8524 67.596C31.4002 67.8571 32.0558 67.6248 32.3169 67.0772C32.7621 66.1435 33.0242 65.1546 33.1055 64.1302H52.8595C53.2081 68.4668 56.846 71.8895 61.2708 71.8895C65.6955 71.8895 69.3333 68.4668 69.682 64.1302H71.9436C73.6289 64.1302 75 62.7591 75 61.0738V51.8058C75 50.8242 74.6354 49.8845 73.9731 49.16L66.7982 41.3091ZM50.4504 5.56211C50.4504 5.42163 50.5646 5.30737 50.7051 5.30737H62.1996C62.3401 5.30737 62.4543 5.42163 62.4543 5.56211V8.36963C60.5411 7.7144 58.5154 7.36811 56.4523 7.36811C54.3527 7.36811 52.3337 7.71938 50.4502 8.36523V5.56211H50.4504ZM57.2791 34.1497L68.7122 46.6605H60.5168C59.9099 46.6605 59.4182 47.1522 59.4182 47.7591C59.4182 48.366 59.9099 48.8578 60.5168 48.8578H70.7202L72.3513 50.6427C73.0163 51.3704 72.7368 52.1601 72.8027 52.9981H71.9558C71.3489 52.9981 70.8571 53.4899 70.8571 54.0968C70.8571 54.7037 71.3489 55.1954 71.9558 55.1954H72.8027V56.8211H66.4891C65.0518 55.6869 63.2396 55.0075 61.2709 55.0075C59.3021 55.0075 57.49 55.6869 56.0527 56.8211H44.0824V33.5852H48.8208V46.6467C48.8208 47.8659 49.8126 48.8579 51.0318 48.8579H56.1246C56.7315 48.8579 57.2232 48.3662 57.2232 47.7593C57.2232 47.1524 56.7315 46.6606 56.1246 46.6606H51.0318C51.0242 46.6606 51.018 46.6543 51.018 46.6467V33.5852H55.9988C56.4844 33.5852 56.9512 33.791 57.2791 34.1497ZM52.9685 61.9333H44.0821V59.0184H54.0896C53.5459 59.8964 53.1601 60.8812 52.9685 61.9333ZM31.8754 59.0184H41.8849V61.9333H32.9966C32.805 60.8812 32.4192 59.8964 31.8754 59.0184ZM10.2333 59.0184H17.5132C16.9695 59.8964 16.5836 60.8812 16.392 61.9333H10.2333V59.0184ZM19.4761 56.8211H10.2333V54.268H14.994C15.6007 54.268 16.0926 53.7763 16.0926 53.1694C16.0926 52.5625 15.6007 52.0708 14.994 52.0708H10.2333V48.8578H14.994C15.6007 48.8578 16.0926 48.366 16.0926 47.7591C16.0926 47.1522 15.6007 46.6605 14.994 46.6605H10.2333V34.064C10.2333 33.7999 10.448 33.585 10.7121 33.585H41.8849V56.8209H29.9127C28.4754 55.6867 26.6632 55.0073 24.6945 55.0073C22.7257 55.0073 20.9136 55.6869 19.4761 56.8211ZM61.2708 69.6925C57.8278 69.6925 55.0269 66.8916 55.0269 63.4486C55.0269 60.0057 57.8278 57.2047 61.2708 57.2047C64.7137 57.2047 67.5146 60.0057 67.5146 63.4486C67.5146 66.8916 64.7137 69.6925 61.2708 69.6925ZM71.9435 61.9333H69.5729C69.3813 60.8812 68.9955 59.8964 68.4517 59.0184H72.8027V61.0741C72.8027 61.5479 72.4173 61.9333 71.9435 61.9333Z" fill="#AEAEAE"/>
</g>
<defs>
<clipPath id="clip0_49_893">
<rect width="75" height="75" fill="white"/>
</clipPath>
</defs>
</svg>
