<svg width="71" height="67" viewBox="0 0 71 67" fill="none" xmlns="http://www.w3.org/2000/svg">
<path d="M31.7862 19.9495C32.6428 19.9495 33.4227 19.6169 34.005 19.0745C34.5873 19.6169 35.3672 19.9495 36.2237 19.9495C38.0206 19.9495 39.4825 18.4877 39.4825 16.6907V15.3302H41.7273C42.6627 15.3302 43.5661 14.9389 44.2057 14.2566L50.4856 7.55907C50.5509 7.48959 50.643 7.44965 50.7384 7.44965H69.1279C70.1602 7.44965 71 6.60986 71 5.57759V2.43445C71 1.40217 70.1602 0.562378 69.1279 0.562378H50.5973C49.6158 0.562378 48.6833 0.934573 47.9717 1.61032L40.7666 8.45087C40.4427 8.75844 40.1511 8.82057 39.4824 8.8232V8.00448C39.4824 6.20757 38.0205 4.74569 36.2236 4.74569C35.367 4.74569 34.5871 5.07837 34.0048 5.62071C33.4226 5.07837 32.6427 4.74569 31.7861 4.74569C30.9295 4.74569 30.1496 5.07837 29.5673 5.62071C28.9851 5.07837 28.2052 4.74569 27.3486 4.74569C26.492 4.74569 25.7121 5.07837 25.1298 5.62071C24.5476 5.07837 23.7677 4.74569 22.9111 4.74569C21.1142 4.74569 19.6523 6.20757 19.6523 8.00448V24.5277C18.9424 25.681 18.7127 27.0531 18.999 28.3716C17.3958 29.5929 15.9502 31.0074 14.6966 32.5864C14.3395 33.0363 14.4147 33.6905 14.8645 34.0476C15.3144 34.4047 15.9686 34.3295 16.3257 33.8797C17.3695 32.5648 18.5582 31.374 19.8693 30.3284C20.8934 31.7543 22.5084 32.4909 24.1092 32.4909C27.0058 32.4909 29.3431 30.1289 29.3431 27.2484C29.3431 26.8192 29.2879 26.3903 29.1809 25.973C31.7057 25.4634 33.2463 25.5253 35.8081 25.5253C45.5275 25.5253 50.8565 31.5965 51.3197 31.8522C55.0222 35.5045 57.2623 40.3085 57.7542 45.4451C57.8266 46.2158 57.447 46.9632 56.7491 47.3425C56.7384 47.3483 56.7282 47.3547 56.7174 47.3604C55.7945 47.8399 54.8004 47.5078 54.1099 46.7203C54.1038 46.7132 54.0976 46.706 54.0916 46.6988C53.7094 46.2541 53.4451 45.6389 53.4167 45.0031L53.3607 43.7465C53.2805 41.9541 51.6494 40.6725 49.9133 40.9722C48.8014 41.1586 47.9085 41.9581 47.5911 43.024C47.3782 43.7259 47.5588 43.9097 47.3153 44.4548C47.3076 44.4688 47.2982 44.4816 47.2911 44.4961C47.0243 45.0458 46.4999 45.4116 45.8908 45.465C45.2492 45.5206 44.6489 45.2415 44.2864 44.7276C44.0857 44.4429 43.9668 44.0966 43.9668 43.7226V40.933C43.9668 39.5744 43.4668 38.498 42.6091 37.6898C42.4488 37.5388 42.2776 37.4011 42.0979 37.2774C43.1365 36.321 43.7886 34.9509 43.7886 33.4311C43.7886 30.5471 41.4424 28.2009 38.5584 28.2009C35.6744 28.2009 33.3283 30.5471 33.3283 33.4311C33.3283 35.5033 34.5397 37.2978 36.2914 38.1438C35.7312 38.8455 35.3913 39.71 35.335 40.633C35.3341 40.6456 35.3328 40.6581 35.3322 40.6707C35.3232 40.8411 35.3257 40.6361 35.3257 43.9306C35.3257 46.0517 35.3559 46.1333 35.2238 46.5016C35.2228 46.5042 35.2218 46.5069 35.2209 46.5095C34.9516 47.2489 34.2364 47.6989 33.5058 47.6717C32.5737 47.6386 31.8156 46.8218 31.8156 45.8509V44.5122V38.7246C31.8156 37.3526 30.6993 36.2364 29.3274 36.2364C28.4494 36.2364 21.6762 36.2364 20.6513 36.2364C19.1821 36.2364 17.9246 37.236 17.5929 38.6673L17.1547 40.5594C16.9607 41.3939 16.2797 41.9541 15.4652 41.99C14.8003 42.0188 14.2616 42.0016 13.8679 41.5022C13.6847 41.2748 13.5745 40.9855 13.5745 40.6706V40.6173C13.5743 39.634 13.733 38.6554 14.0457 37.709C14.2259 37.1636 13.9299 36.5753 13.3845 36.3951C12.8389 36.2149 12.251 36.5107 12.0706 37.0562C11.688 38.2137 11.4941 39.412 11.4942 40.6175V40.6706C11.4942 40.9743 11.5347 41.2687 11.6095 41.5491C7.51602 43.6592 4.46066 47.4073 3.23119 51.8369C1.42929 51.9582 0 53.4621 0 55.2945C0 57.0633 1.3318 58.5258 3.0451 58.7347L3.49384 62.3625C3.78117 64.6856 5.7632 66.4376 8.10426 66.4376H53.8037C54.3782 66.4376 54.8438 65.972 54.8438 65.3976C54.8438 64.8232 54.3782 64.3575 53.8037 64.3575H8.10426C6.81156 64.3575 5.71689 63.39 5.55825 62.107L5.14445 58.7612H65.825L65.4112 62.107C65.2525 63.39 64.1579 64.3575 62.8652 64.3575H58.6574C58.0829 64.3575 57.6173 64.8232 57.6173 65.3976C57.6173 65.972 58.0829 66.4376 58.6574 66.4376H62.8652C65.2063 66.4376 67.1883 64.6856 67.4757 62.3625L67.924 58.7386C69.6521 58.544 71 57.0741 71 55.2945C71 53.508 69.6416 52.0331 67.9033 51.8477C67.3262 49.0844 66.1708 46.4306 64.5315 44.1264C62.8285 41.7327 60.5955 39.7 58.0582 38.2262C56.9054 35.483 55.2445 32.9611 53.1424 30.7915C53.5205 30.058 53.7183 29.2473 53.7183 28.4048C53.7183 25.521 51.3721 23.1746 48.4881 23.1746C46.9298 23.1746 45.4634 23.8778 44.4789 25.0525C41.7395 23.9981 38.8061 23.445 35.8081 23.445C34.0657 23.445 32.48 23.4005 30.6074 23.6282V19.7281C30.9733 19.8705 31.3706 19.9495 31.7862 19.9495ZM29.2233 38.3161H29.3276C29.5526 38.3161 29.7357 38.4991 29.7357 38.7242V42.4287C28.725 41.7653 27.6476 41.2169 26.5238 40.7908C27.2494 39.795 28.1652 38.9538 29.2233 38.3161ZM44.0229 51.8277C44.6084 51.0633 45.5296 50.578 46.5366 50.578C47.0317 50.578 48.5009 50.4449 49.5599 51.8277H44.0229ZM36.114 50.3362C36.0608 50.1975 35.8517 49.6726 35.6204 49.1848C35.6169 49.1775 35.614 49.1702 35.6105 49.163C36.5529 48.5686 37.2191 47.5759 37.3717 46.4228C37.3721 46.4194 37.3729 46.4159 37.3735 46.4123C37.3742 46.4076 37.3743 46.4029 37.3748 46.3981C37.4144 46.0834 37.406 46.0243 37.406 44.4477C38.7605 43.4607 40.2847 42.7146 41.887 42.2517C41.887 43.8718 41.8563 44.1073 42.0116 44.6922C39.3789 45.7605 37.28 47.7857 36.114 50.3362ZM38.1539 39.2029C38.6447 38.9784 39.1478 38.7741 39.6535 38.5944C40.6241 38.5944 41.4687 39.2357 41.7692 40.128C40.2393 40.5219 38.7653 41.1412 37.4059 41.9568V40.9079C37.4059 40.2856 37.6602 39.6659 38.1539 39.2029ZM58.0241 51.8277C57.7826 51.0102 57.4455 50.2202 57.0215 49.4771C57.9992 49.1678 58.8211 48.5054 59.3222 47.6241C59.3266 47.6162 59.331 47.6085 59.3353 47.6006C60.2758 48.8852 60.9947 50.3123 61.4631 51.8277H58.0241ZM49.5445 43.853C49.559 43.3486 50.0117 42.9476 50.5265 43.0158C50.9457 43.0706 51.2637 43.417 51.2827 43.8392L51.3164 44.5944C50.7366 44.3749 50.1386 44.2038 49.5303 44.0841C49.5371 44.0076 49.5423 43.9308 49.5445 43.853ZM45.7368 47.5523C46.9375 47.5523 48.049 47.0037 48.7681 46.0608C49.8714 46.2309 50.9419 46.6084 51.9074 47.1692C52.493 48.2655 53.4651 49.0788 54.5026 49.4416C55.066 50.1667 55.5156 50.9742 55.8339 51.8276H51.9265C51.1497 49.8562 49.217 48.4978 47.0462 48.4978H46.5365C44.3657 48.4978 42.4332 49.8562 41.6563 51.8276H37.7459C38.654 49.3659 40.5973 47.4171 43.0873 46.5056C43.7863 47.1662 44.7324 47.5522 45.7166 47.5522H45.7368V47.5523ZM38.5585 30.2807C40.2954 30.2807 41.7086 31.6938 41.7086 33.4308C41.7086 35.1677 40.2956 36.5809 38.5585 36.5809C36.8215 36.5809 35.4085 35.1678 35.4085 33.4308C35.4085 31.6939 36.8215 30.2807 38.5585 30.2807ZM20.6514 38.3161H25.8984C25.3524 38.8746 24.8639 39.4901 24.4409 40.1542C23.2098 39.8649 21.9418 39.7149 20.66 39.7149H19.4855L19.6194 39.1363C19.7313 38.6535 20.1557 38.3161 20.6514 38.3161ZM12.7341 43.3098C13.9884 44.3587 15.9054 44.1532 16.7968 43.8066C16.799 43.8058 16.8011 43.8048 16.8031 43.804C17.736 43.4393 18.4991 42.7239 18.9205 41.798C19.0948 41.7941 19.0463 41.7951 20.6602 41.7951C23.9657 41.7951 27.17 42.9295 29.7358 44.9988C29.7358 45.9204 29.6652 46.673 30.1826 47.6613C30.8369 48.9107 32.1236 49.7562 33.5809 49.7526C33.9248 50.4329 34.2048 51.1192 34.4331 51.8278H32.2251C30.4472 47.2248 25.9893 43.8753 20.6603 43.8753H19.1787C16.4911 43.8753 13.9326 44.7249 11.78 46.3323C9.90838 47.7298 8.4508 49.6611 7.61392 51.8278H5.40349C6.59246 48.1415 9.24442 45.0497 12.7341 43.3098ZM26.4206 51.8277C25.3502 49.4215 22.9752 47.8524 20.2896 47.8524H19.5489C16.8633 47.8524 14.4883 49.4213 13.418 51.8277H9.87274C11.5638 48.2644 15.1424 45.9552 19.1785 45.9552H20.66C24.6961 45.9552 28.2746 48.2644 29.9657 51.8277H26.4206ZM24.03 51.8277H15.8087C16.663 50.6566 18.034 49.9325 19.549 49.9325H20.2898C21.8045 49.9326 23.1757 50.6566 24.03 51.8277ZM68.9199 55.2945C68.9199 56.0591 68.2978 56.6812 67.5332 56.6812C67.109 56.6812 4.76241 56.6812 3.4668 56.6812C2.70216 56.6812 2.08008 56.0591 2.08008 55.2945C2.08008 54.5299 2.70216 53.9078 3.4668 53.9078H67.5332C68.2978 53.9078 68.9199 54.5299 68.9199 55.2945ZM65.7723 51.8277H63.6245C62.936 49.2461 61.6223 46.8682 59.7877 44.8898C59.6582 43.7176 59.4352 42.5379 59.1566 41.4689C62.4808 44.0626 64.8108 47.6922 65.7723 51.8277ZM46.5203 25.9478C48.8895 24.0523 52.3554 26.3006 51.5209 29.2623C50.0386 27.9877 48.3127 26.8365 46.5203 25.9478ZM42.199 9.9592L49.4042 3.11852C49.7275 2.8115 50.1514 2.64232 50.5973 2.64232H68.9199V5.36958H50.7385C50.0703 5.36958 49.4249 5.64914 48.9682 6.13643L42.6883 12.8339C42.1855 13.3703 41.7763 13.2502 39.4825 13.2502V10.9034C40.426 10.8995 41.3271 10.7867 42.199 9.9592ZM36.2237 6.82563C36.8737 6.82563 37.4024 7.35439 37.4024 8.00434V9.8527V14.2902V16.6907C37.4024 17.3407 36.8737 17.8695 36.2237 17.8695C35.5738 17.8695 35.045 17.3407 35.045 16.6907V8.00434C35.045 7.35439 35.5738 6.82563 36.2237 6.82563ZM31.7862 6.82563C32.4362 6.82563 32.9649 7.35439 32.9649 8.00434V16.6907C32.9649 17.3407 32.4362 17.8695 31.7862 17.8695C31.1363 17.8695 30.6075 17.3407 30.6075 16.6907V8.00434C30.6075 7.35439 31.1363 6.82563 31.7862 6.82563ZM27.2594 27.2606C27.2594 28.8614 25.9999 30.3168 24.2745 30.4062C22.4428 30.495 20.9594 29.0413 20.9594 27.2606C20.9594 25.6447 22.1904 24.2908 23.7857 24.1272C23.7878 24.1269 23.79 24.1268 23.7921 24.1266C25.6586 23.939 27.2594 25.4132 27.2594 27.2606ZM21.7325 8.00434C21.7325 7.35439 22.2613 6.82563 22.9112 6.82563C23.5612 6.82563 24.0899 7.35439 24.0899 8.00434V22.0278C23.2632 22.0288 22.4571 22.2257 21.7325 22.5965V8.00434ZM28.2348 24.0465C27.722 23.3898 27.027 22.8345 26.2202 22.4771C26.2033 22.4696 26.1871 22.4609 26.17 22.4537V8.00434C26.17 7.35439 26.6988 6.82563 27.3487 6.82563C27.9987 6.82563 28.5274 7.35439 28.5274 8.00434V23.9799C28.4313 24.0007 28.3326 24.024 28.2348 24.0465Z" fill="white"/>
</svg>
