<svg width="60" height="60" viewBox="0 0 60 60" fill="none" xmlns="http://www.w3.org/2000/svg">
<g clip-path="url(#clip0_49_933)">
<path d="M20.8296 44.6144C20.7138 44.825 20.5344 44.8882 20.3659 44.8882C20.1975 44.8882 20.029 44.825 19.9132 44.6144L18.7015 42.3389V46.9527C18.7015 47.2374 18.3541 47.3848 18.0172 47.3848C17.6693 47.3848 17.3323 47.2374 17.3323 46.9527V40.3687C17.3323 39.8633 17.6693 39.6843 18.0172 39.6843C18.512 39.6843 18.7336 39.7896 19.081 40.4108L20.3769 42.7706L21.6724 40.4108C22.0203 39.7896 22.2519 39.6843 22.7472 39.6843C23.0947 39.6843 23.4316 39.8633 23.4316 40.3687V46.9527C23.4316 47.2374 23.0841 47.3848 22.7472 47.3848C22.3993 47.3848 22.0624 47.2374 22.0624 46.9527V42.4231L20.8296 44.6144Z" fill="white"/>
<path d="M27.2443 42.9916H28.8455C29.1193 42.9916 29.2772 43.2553 29.2772 43.5396C29.2772 43.7817 29.1403 44.0665 28.8455 44.0665H27.2443V46.1836H30.2252C30.4994 46.1836 30.6573 46.4679 30.6573 46.7947C30.6573 47.079 30.5205 47.3848 30.2252 47.3848H26.4752C26.1699 47.3848 25.8746 47.2369 25.8746 46.9527V40.116C25.8746 39.8317 26.1694 39.6838 26.4752 39.6838H30.2252C30.5205 39.6838 30.6573 39.9896 30.6573 40.2739C30.6573 40.6007 30.4994 40.885 30.2252 40.885H27.2443V42.9916Z" fill="white"/>
<path d="M36.2719 46.9527L34.0068 42.7179V46.9527C34.0068 47.2374 33.6594 47.3848 33.322 47.3848C32.9746 47.3848 32.6372 47.2374 32.6372 46.9527V40.116C32.6372 39.8212 32.9746 39.6843 33.322 39.6843C33.8173 39.6843 34.0174 39.7896 34.3442 40.4108L36.3771 44.3402V40.1054C36.3771 39.8106 36.7141 39.6838 37.062 39.6838C37.3989 39.6838 37.7463 39.8102 37.7463 40.1054V46.9527C37.7463 47.2369 37.3989 47.3848 37.062 47.3848C36.7351 47.3848 36.4508 47.2795 36.2719 46.9527Z" fill="white"/>
<path d="M43.8455 40.1055C43.8455 39.8107 44.1824 39.6843 44.5298 39.6843C44.8672 39.6843 45.2147 39.8107 45.2147 40.1055V45.0356C45.2147 46.7948 44.0982 47.448 42.6864 47.448C41.2642 47.448 40.1582 46.7948 40.1582 45.0356V40.1055C40.1582 39.8107 40.4951 39.6843 40.843 39.6843C41.1799 39.6843 41.5274 39.8107 41.5274 40.1055V45.0356C41.5274 45.8573 41.9595 46.2473 42.6864 46.2473C43.4134 46.2473 43.845 45.8573 43.845 45.0356V40.1055H43.8455Z" fill="white"/>
<path d="M46.5536 49.4705H41.5461C41.0545 49.4705 40.6562 49.8687 40.6562 50.3599C40.6562 50.8515 41.0545 51.2493 41.5461 51.2493H46.5536C47.0453 51.2493 47.4431 50.8515 47.4431 50.3599C47.4431 49.8687 47.0453 49.4705 46.5536 49.4705Z" fill="white"/>
<path d="M37.407 49.4705H17.1405C16.6493 49.4705 16.251 49.8687 16.251 50.3599C16.251 50.8515 16.6493 51.2493 17.1405 51.2493H37.407C37.8987 51.2493 38.2965 50.8515 38.2965 50.3599C38.2965 49.8687 37.8987 49.4705 37.407 49.4705Z" fill="white"/>
<path d="M46.5536 35.8877H17.1405C16.6493 35.8877 16.251 36.2859 16.251 36.7771C16.251 37.2683 16.6493 37.6666 17.1405 37.6666H46.5536C47.0453 37.6666 47.4431 37.2683 47.4431 36.7771C47.4431 36.2859 47.0453 35.8877 46.5536 35.8877Z" fill="white"/>
<path d="M46.0588 24.8589H45.1954C44.8622 18.7299 40.382 13.6863 34.5186 12.4925L34.6902 10.8514C34.7465 10.3158 34.5717 9.7793 34.2114 9.37967C33.8511 8.97958 33.3357 8.75024 32.7974 8.75024H30.8972C30.3584 8.75024 29.8434 8.98004 29.4827 9.37967C29.1224 9.77975 28.948 10.3163 29.0043 10.8514L29.176 12.4925C23.3125 13.6863 18.8324 18.7295 18.4991 24.8585H17.6358C16.8722 24.8585 16.251 25.4796 16.251 26.2432V28.0788C16.251 28.8424 16.8722 29.4636 17.6358 29.4636H46.0583C46.8219 29.4636 47.4431 28.8424 47.4431 28.0788V26.2432C47.4431 25.4801 46.8223 24.8589 46.0588 24.8589ZM30.8047 10.5703C30.8294 10.5433 30.8601 10.5296 30.8972 10.5296H32.7974C32.834 10.5296 32.8651 10.5433 32.8898 10.5703C32.9146 10.5978 32.9251 10.6303 32.921 10.6664L32.7548 12.2558C32.455 12.2357 32.1524 12.2242 31.8475 12.2242C31.5422 12.2242 31.2401 12.2357 30.9402 12.2558L30.7736 10.6664C30.7699 10.6303 30.7805 10.5978 30.8047 10.5703ZM45.6642 27.6847H18.0304V26.6378H21.779C22.2706 26.6378 22.6689 26.2395 22.6689 25.7484C22.6689 25.2572 22.2706 24.8589 21.779 24.8589H20.2816C20.6616 18.8091 25.7034 14.0035 31.847 14.0035C37.9911 14.0035 43.033 18.8091 43.4129 24.8589H25.9181C25.4265 24.8589 25.0287 25.2572 25.0287 25.7484C25.0287 26.2395 25.4265 26.6378 25.9181 26.6378H45.6642V27.6847Z" fill="white"/>
<path d="M52.9083 0H10.7863C9.53751 0 8.52127 1.01623 8.52127 2.26501V3.87176H7.69135C6.16425 3.87176 4.92188 5.11458 4.92188 6.64168C4.92188 8.16878 6.16425 9.4116 7.69135 9.4116H8.52127V13.2152H7.69135C6.16425 13.2152 4.92188 14.4575 4.92188 15.9851C4.92188 17.5122 6.16425 18.7545 7.69135 18.7545H8.52127V22.5585H7.69135C6.16425 22.5585 4.92188 23.8009 4.92188 25.3285C4.92188 26.8556 6.16425 28.0979 7.69135 28.0979H8.52127V31.9019H7.69135C6.16425 31.9019 4.92188 33.1443 4.92188 34.6714C4.92188 36.199 6.16425 37.4413 7.69135 37.4413H8.52127V41.2453H7.69135C6.16425 41.2453 4.92188 42.4877 4.92188 44.0148C4.92188 45.5424 6.16425 46.7847 7.69135 46.7847H8.52127V50.5887H7.69135C6.16425 50.5887 4.92188 51.8311 4.92188 53.3582C4.92188 54.8853 6.16425 56.1281 7.69135 56.1281H8.52127V57.7349C8.52127 58.9837 9.53751 59.9999 10.7863 59.9999H52.9083C54.1571 59.9999 55.1738 58.9837 55.1738 57.7349V2.26501C55.1738 1.01623 54.1571 0 52.9083 0V0ZM8.52081 7.63274H7.69135C7.14523 7.63274 6.70074 7.18825 6.70074 6.64168C6.70074 6.09557 7.14523 5.65108 7.69135 5.65108H8.52081V7.63274ZM8.52081 16.9757H7.69135C7.14523 16.9757 6.70074 16.5312 6.70074 15.9851C6.70074 15.4385 7.14523 14.9945 7.69135 14.9945H8.52081V16.9757ZM8.52081 26.3191H7.69135C7.14523 26.3191 6.70074 25.8746 6.70074 25.3285C6.70074 24.7819 7.14523 24.3374 7.69135 24.3374H8.52081V26.3191ZM8.52081 35.6625H7.69135C7.14523 35.6625 6.70074 35.218 6.70074 34.6714C6.70074 34.1253 7.14523 33.6808 7.69135 33.6808H8.52081V35.6625ZM8.52081 45.0054H7.69135C7.14523 45.0054 6.70074 44.5614 6.70074 44.0148C6.70074 43.4687 7.14523 43.0242 7.69135 43.0242H8.52081V45.0054ZM8.52081 54.3488H7.69135C7.14523 54.3488 6.70074 53.9043 6.70074 53.3582C6.70074 52.8116 7.14523 52.3676 7.69135 52.3676H8.52081V54.3488ZM53.3945 57.7344C53.3945 58.0027 53.1766 58.221 52.9083 58.221H10.7863C10.518 58.221 10.3001 58.0027 10.3001 57.7344V2.26501C10.3001 1.99722 10.518 1.77887 10.7863 1.77887H52.9083C53.1766 1.77887 53.3945 1.99722 53.3945 2.26501V57.7344Z" fill="white"/>
</g>
<defs>
<clipPath id="clip0_49_933">
<rect width="60" height="60" fill="white"/>
</clipPath>
</defs>
</svg>
