<svg width="37" height="35" viewBox="0 0 37 35" fill="none" xmlns="http://www.w3.org/2000/svg">
<path d="M32.1988 30.7045C34.0513 28.3158 36.7813 24.3853 36.7813 21.9844C36.7778 20.4194 36.228 18.9047 35.2266 17.702C34.2253 16.4993 32.8353 15.684 31.2969 15.397V8.57812L33.582 9.16921C33.6319 9.18129 33.6831 9.18743 33.7344 9.18749C33.896 9.18749 34.051 9.12329 34.1653 9.00901C34.2796 8.89473 34.3438 8.73973 34.3438 8.57812V4.92187C34.344 4.78659 34.2992 4.65508 34.2165 4.54806C34.1337 4.44104 34.0177 4.36459 33.8867 4.33077L17.4336 0.0651503C17.3335 0.0407832 17.229 0.0407832 17.1289 0.0651503L0.675789 4.33077C0.544806 4.36459 0.428799 4.44104 0.346052 4.54806C0.263304 4.65508 0.218521 4.78659 0.218758 4.92187V8.57812C0.218284 8.6713 0.239513 8.76332 0.280763 8.84687C0.322013 8.93043 0.382151 9.00324 0.456414 9.05953C0.529969 9.1159 0.615252 9.15503 0.705961 9.17401C0.79667 9.193 0.890487 9.19136 0.980476 9.16921L3.26563 8.57812V30.5156C3.26563 30.6772 3.32983 30.8322 3.44411 30.9465C3.55839 31.0608 3.71339 31.125 3.87501 31.125H26.5316C25.7516 31.4662 25.2031 31.9659 25.2031 32.6484C25.2031 34.1109 27.732 34.7812 30.0781 34.7812C32.4242 34.7812 34.9531 34.1109 34.9531 32.6484C34.9531 31.5942 33.6674 30.9848 32.1988 30.7045ZM35.5625 21.9844C35.5625 24.3426 31.9489 29.1567 30.0781 31.4053C28.2074 29.1567 24.5938 24.3426 24.5938 21.9844C24.5938 20.5298 25.1716 19.1348 26.2001 18.1063C27.2286 17.0778 28.6236 16.5 30.0781 16.5C31.5327 16.5 32.9277 17.0778 33.9562 18.1063C34.9847 19.1348 35.5625 20.5298 35.5625 21.9844ZM21.5469 16.5V14.0625C21.5479 13.5808 21.6913 13.1101 21.9591 12.7097C22.2269 12.3092 22.6071 11.9969 23.0519 11.8119C23.4967 11.627 23.9863 11.5777 24.459 11.6702C24.9318 11.7627 25.3666 11.9929 25.7089 12.3319C26.1649 12.7926 26.421 13.4143 26.4219 14.0625V16.372L26.2391 16.5H21.5469ZM1.43751 7.79202V5.39109L17.2813 1.2839L33.125 5.39109V7.79202L17.4336 3.7214C17.3335 3.69703 17.229 3.69703 17.1289 3.7214L1.43751 7.79202ZM16.6719 29.9062H13.625V21.375H16.6719V29.9062ZM20.9375 29.9062H17.8906V21.375H20.9375V29.9062ZM22.1563 29.9062V20.7656C22.1563 20.604 22.0921 20.449 21.9778 20.3347C21.8635 20.2204 21.7085 20.1562 21.5469 20.1562H13.0156C12.854 20.1562 12.699 20.2204 12.5847 20.3347C12.4705 20.449 12.4063 20.604 12.4063 20.7656V29.9062H4.48438V8.26124L17.2813 4.94015L30.0781 8.26124V15.2812C29.244 15.2836 28.4175 15.4406 27.6406 15.7444V14.0625C27.6406 13.0928 27.2554 12.1628 26.5697 11.4771C25.8841 10.7915 24.9541 10.4062 23.9844 10.4062C23.0147 10.4062 22.0847 10.7915 21.399 11.4771C20.7133 12.1628 20.3281 13.0928 20.3281 14.0625V16.5H19.7188V17.7187H24.9106C23.917 18.918 23.3738 20.4269 23.375 21.9844C23.375 24.1294 25.5627 27.5053 27.3481 29.9062H22.1563ZM30.0781 33.5625C27.7381 33.5625 26.495 32.8922 26.4219 32.6606C26.4767 32.4717 27.2567 31.9903 28.835 31.8075C29.2677 32.3437 29.5663 32.685 29.6211 32.7459C29.6783 32.8108 29.7486 32.8627 29.8274 32.8983C29.9062 32.9338 29.9917 32.9522 30.0781 32.9522C30.1646 32.9522 30.2501 32.9338 30.3289 32.8983C30.4076 32.8627 30.478 32.8108 30.5352 32.7459C30.59 32.685 30.8886 32.3437 31.3213 31.8075C32.8995 31.9903 33.6795 32.4717 33.7344 32.6362C33.6613 32.8922 32.4181 33.5625 30.0781 33.5625Z" fill="white"/>
</svg>
