<svg width="100" height="100" viewBox="0 0 100 100" fill="none" xmlns="http://www.w3.org/2000/svg">
<path d="M7.8125 32.6562V66.2672C4.18438 69.3547 3.125 82.6562 3.125 82.8125C3.125 84.4701 3.78348 86.0598 4.95558 87.2319C6.12769 88.404 7.7174 89.0625 9.375 89.0625C11.0326 89.0625 12.6223 88.404 13.7944 87.2319C14.9665 86.0598 15.625 84.4701 15.625 82.8125C15.625 82.6562 14.5656 69.3547 10.9375 66.2672V32.6562C12.7009 32.2936 14.2854 31.3341 15.4239 29.9395C16.5624 28.5448 17.1852 26.8003 17.1875 25V12.5H14.0625V25C14.0585 25.966 13.7561 26.9072 13.1967 27.6948C12.6374 28.4825 11.8483 29.078 10.9375 29.4V12.5H7.8125V29.4C6.90171 29.078 6.11264 28.4825 5.55326 27.6948C4.99388 26.9072 4.6915 25.966 4.6875 25V12.5H1.5625V25C1.56477 26.8003 2.18764 28.5448 3.32612 29.9395C4.4646 31.3341 6.04908 32.2936 7.8125 32.6562ZM12.5 82.8125C12.5 83.6413 12.1708 84.4362 11.5847 85.0222C10.9987 85.6083 10.2038 85.9375 9.375 85.9375C8.5462 85.9375 7.75134 85.6083 7.16529 85.0222C6.57924 84.4362 6.25 83.6413 6.25 82.8125C6.25 80.0297 7.96094 71.25 9.375 69.0625C10.7891 71.25 12.5 80.0297 12.5 82.8125Z" fill="#FF9900"/>
<path d="M87.5 34.1031V66.2672C83.8719 69.3547 82.8125 82.6562 82.8125 82.8125C82.8125 84.4701 83.471 86.0598 84.6431 87.2319C85.8152 88.404 87.4049 89.0625 89.0625 89.0625C90.7201 89.0625 92.3098 88.404 93.4819 87.2319C94.654 86.0598 95.3125 84.4701 95.3125 82.8125C95.3125 82.6562 94.2531 69.3547 90.625 66.2672V34.1031C95.2859 32.6063 98.4375 24.7688 98.4375 20.3125C98.4375 17.8261 97.4498 15.4415 95.6916 13.6834C93.9335 11.9252 91.5489 10.9375 89.0625 10.9375C86.5761 10.9375 84.1915 11.9252 82.4334 13.6834C80.6752 15.4415 79.6875 17.8261 79.6875 20.3125C79.6875 24.7688 82.8391 32.6063 87.5 34.1031ZM92.1875 82.8125C92.1875 83.6413 91.8583 84.4362 91.2722 85.0222C90.6862 85.6083 89.8913 85.9375 89.0625 85.9375C88.2337 85.9375 87.4388 85.6083 86.8528 85.0222C86.2667 84.4362 85.9375 83.6413 85.9375 82.8125C85.9375 80.0297 87.6484 71.25 89.0625 69.0625C90.4766 71.25 92.1875 80.0297 92.1875 82.8125ZM89.0625 14.0625C90.7201 14.0625 92.3098 14.721 93.4819 15.8931C94.654 17.0652 95.3125 18.6549 95.3125 20.3125C95.3125 24.1375 92.1 31.25 89.0625 31.25C86.025 31.25 82.8125 24.1375 82.8125 20.3125C82.8125 18.6549 83.471 17.0652 84.6431 15.8931C85.8152 14.721 87.4049 14.0625 89.0625 14.0625Z" fill="#FF9900"/>
<path d="M50 82.8125C56.7987 82.8125 63.4448 80.7964 69.0977 77.0192C74.7507 73.2421 79.1566 67.8734 81.7584 61.5922C84.3601 55.311 85.0409 48.3993 83.7145 41.7312C82.3881 35.0631 79.1142 28.9381 74.3068 24.1307C69.4994 19.3232 63.3743 16.0493 56.7062 14.723C50.0381 13.3966 43.1265 14.0773 36.8453 16.6791C30.564 19.2809 25.1954 23.6868 21.4182 29.3397C17.6411 34.9927 15.625 41.6387 15.625 48.4375C15.6353 57.5511 19.2603 66.2885 25.7046 72.7328C32.1489 79.1772 40.8864 82.8021 50 82.8125ZM50 17.1875C56.1807 17.1875 62.2225 19.0202 67.3616 22.454C72.5006 25.8878 76.506 30.7684 78.8712 36.4786C81.2365 42.1888 81.8553 48.4721 80.6496 54.534C79.4438 60.5959 76.4675 66.1642 72.0971 70.5345C67.7267 74.9049 62.1585 77.8812 56.0966 79.087C50.0347 80.2928 43.7513 79.6739 38.0411 77.3087C32.331 74.9435 27.4504 70.9381 24.0166 65.799C20.5828 60.66 18.75 54.6181 18.75 48.4375C18.7595 40.1524 22.055 32.2093 27.9134 26.3509C33.7719 20.4924 41.7149 17.197 50 17.1875Z" fill="#FF9900"/>
<path d="M38.2812 54.6875C39.7316 54.6875 41.1226 54.1113 42.1482 53.0857C43.1738 52.0601 43.75 50.6692 43.75 49.2188V39.0625H40.625V49.2188C40.625 49.8404 40.378 50.4365 39.9385 50.876C39.499 51.3156 38.9028 51.5625 38.2812 51.5625C37.6596 51.5625 37.0635 51.3156 36.6239 50.876C36.1844 50.4365 35.9375 49.8404 35.9375 49.2188C35.9365 48.8045 36.0515 48.3983 36.2693 48.0459C36.4872 47.6936 36.7993 47.4092 37.1703 47.225L38.1984 46.7109L36.8015 43.9156L35.7734 44.4297C34.8818 44.8717 34.1318 45.5546 33.6084 46.401C33.0851 47.2475 32.8094 48.2236 32.8125 49.2188C32.8125 50.6692 33.3886 52.0601 34.4142 53.0857C35.4398 54.1113 36.8308 54.6875 38.2812 54.6875Z" fill="#FF9900"/>
<path d="M46.875 48.4376H50V48.1705C50.0045 46.5633 49.6901 44.9713 49.0751 43.4865C48.4601 42.0017 47.5567 40.6537 46.4172 39.5204L44.2078 41.7314C45.0561 42.575 45.7287 43.5784 46.1865 44.6837C46.6443 45.789 46.8783 46.9741 46.875 48.1705V48.4376Z" fill="#FF9900"/>
<path d="M45.3125 54.6875C47.6358 54.6844 49.8981 53.9431 51.7727 52.5706C53.6474 51.1981 55.0374 49.2655 55.7422 47.0516L56.7078 49.3078C57.1934 50.4414 58.0012 51.4074 59.0309 52.086C60.0606 52.7645 61.2668 53.1258 62.5 53.125H65.625C66.0394 53.125 66.4368 52.9604 66.7299 52.6674C67.0229 52.3744 67.1875 51.9769 67.1875 51.5625V50C67.1875 48.3424 66.529 46.7527 65.3569 45.5806C64.1848 44.4085 62.5951 43.75 60.9375 43.75V46.875C61.7663 46.875 62.5612 47.2043 63.1472 47.7903C63.7333 48.3764 64.0625 49.1712 64.0625 50H62.5C61.8782 50.0006 61.2699 49.8184 60.7507 49.4762C60.2315 49.1339 59.8243 48.6467 59.5797 48.075L56.1234 40.0094C55.9816 39.6788 55.73 39.4072 55.4111 39.2406C55.0923 39.074 54.7257 39.0225 54.3733 39.0949C54.0208 39.1672 53.7042 39.359 53.4768 39.6378C53.2493 39.9165 53.1251 40.2653 53.125 40.625V43.75C53.1225 45.8213 52.2986 47.807 50.834 49.2716C49.3694 50.7362 47.3837 51.5601 45.3125 51.5625V54.6875Z" fill="#FF9900"/>
<path d="M50 71.8749C54.6355 71.8749 59.1669 70.5003 63.0212 67.925C66.8755 65.3497 69.8795 61.6892 71.6534 57.4066C73.4274 53.1239 73.8915 48.4114 72.9872 43.865C72.0828 39.3186 69.8506 35.1424 66.5728 31.8646C63.295 28.5868 59.1189 26.3546 54.5724 25.4503C50.026 24.546 45.3135 25.0101 41.0309 26.784C36.7482 28.558 33.0878 31.562 30.5124 35.4163C27.9371 39.2705 26.5625 43.8019 26.5625 48.4374C26.5695 54.6513 29.0411 60.6086 33.4349 65.0025C37.8288 69.3963 43.7861 71.8679 50 71.8749ZM50 28.1249C54.0174 28.1249 57.9446 29.3163 61.285 31.5482C64.6254 33.7802 67.2289 36.9526 68.7663 40.6642C70.3037 44.3758 70.706 48.46 69.9222 52.4002C69.1384 56.3404 67.2039 59.9598 64.3631 62.8005C61.5224 65.6413 57.903 67.5759 53.9628 68.3596C50.0225 69.1434 45.9384 68.7411 42.2267 67.2037C38.5151 65.6663 35.3427 63.0628 33.1108 59.7225C30.8788 56.3821 29.6875 52.4549 29.6875 48.4374C29.6937 43.0521 31.8358 37.8892 35.6437 34.0812C39.4517 30.2732 44.6147 28.1312 50 28.1249Z" fill="#FF9900"/>
</svg>
