<svg width="37" height="37" viewBox="0 0 37 37" fill="none" xmlns="http://www.w3.org/2000/svg">
<path d="M30.8222 22.1591C30.0238 21.3278 29.0608 20.8833 28.0401 20.8833C27.0277 20.8833 26.0564 21.3195 25.225 22.1509L22.624 24.7437C22.4099 24.6285 22.1959 24.5215 21.9902 24.4145C21.6938 24.2663 21.414 24.1264 21.1753 23.9782C18.7388 22.4308 16.5246 20.4141 14.401 17.8048C13.3721 16.5043 12.6806 15.4095 12.1785 14.2983C12.8535 13.681 13.4791 13.0389 14.0882 12.4216C14.3187 12.1911 14.5491 11.9524 14.7796 11.7219C16.5082 9.99339 16.5082 7.7545 14.7796 6.02594L12.5325 3.77882C12.2773 3.52365 12.0139 3.26025 11.767 2.99686C11.2731 2.48652 10.7545 1.95972 10.2195 1.46585C9.42108 0.675651 8.46626 0.255859 7.46205 0.255859C6.45785 0.255859 5.48656 0.675651 4.66344 1.46585C4.65521 1.47408 4.65521 1.47408 4.64698 1.48231L1.84836 4.30562C0.794769 5.35922 0.19389 6.64328 0.0621906 8.13314C-0.135359 10.5367 0.572526 12.7755 1.11579 14.2407C2.44924 17.8377 4.4412 21.1714 7.41267 24.7437C11.0179 29.0487 15.3558 32.4482 20.311 34.8434C22.2042 35.7406 24.7311 36.8025 27.5545 36.9836C27.7273 36.9918 27.9084 37 28.073 37C29.9744 37 31.5713 36.3168 32.8224 34.9587C32.8307 34.9422 32.8471 34.934 32.8554 34.9175C33.2834 34.399 33.7773 33.9298 34.2958 33.4277C34.6498 33.0902 35.0119 32.7362 35.3659 32.3658C36.1808 31.518 36.6088 30.5303 36.6088 29.5178C36.6088 28.4972 36.1725 27.5177 35.3412 26.6945L30.8222 22.1591ZM33.769 30.8266C33.7608 30.8266 33.7608 30.8348 33.769 30.8266C33.448 31.1723 33.1188 31.4851 32.7648 31.8308C32.2298 32.3411 31.6865 32.8762 31.1762 33.4771C30.3448 34.366 29.3653 34.7858 28.0813 34.7858C27.9578 34.7858 27.8261 34.7858 27.7026 34.7776C25.2579 34.6212 22.9861 33.6664 21.2823 32.8515C16.6234 30.5961 12.5325 27.3942 9.13299 23.3362C6.32615 19.9532 4.44943 16.8253 3.20652 13.467C2.44101 11.4174 2.16115 9.82053 2.28462 8.31422C2.36693 7.35117 2.73734 6.55274 3.42053 5.86955L6.22737 3.0627C6.6307 2.68407 7.05872 2.47829 7.47852 2.47829C7.99708 2.47829 8.41688 2.79107 8.68027 3.05447C8.68851 3.0627 8.69674 3.07094 8.70497 3.07917C9.20707 3.54835 9.68448 4.03399 10.1866 4.55256C10.4418 4.81595 10.7052 5.07935 10.9686 5.35098L13.2157 7.59811C14.0882 8.47062 14.0882 9.27728 13.2157 10.1498C12.977 10.3885 12.7465 10.6272 12.5078 10.8577C11.8164 11.5656 11.1579 12.2241 10.4418 12.8661C10.4253 12.8825 10.4088 12.8908 10.4006 12.9072C9.69271 13.6151 9.82441 14.3065 9.97258 14.7757C9.98081 14.8004 9.98904 14.8251 9.99727 14.8498C10.5817 16.2656 11.4048 17.599 12.656 19.1877L12.6642 19.1959C14.936 21.9945 17.3313 24.1758 19.9735 25.8467C20.311 26.0607 20.6567 26.2336 20.9859 26.3982C21.2823 26.5464 21.5621 26.6863 21.8008 26.8345C21.8338 26.8509 21.8667 26.8756 21.8996 26.8921C22.1795 27.032 22.4429 27.0979 22.7145 27.0979C23.3977 27.0979 23.8257 26.6698 23.9656 26.5299L26.7807 23.7148C27.0606 23.435 27.5051 23.0975 28.0236 23.0975C28.534 23.0975 28.9538 23.4185 29.2089 23.6984C29.2172 23.7066 29.2172 23.7066 29.2254 23.7148L33.7608 28.2502C34.6086 29.0898 34.6086 29.9541 33.769 30.8266Z" fill="white"/>
</svg>
